<?xml version="1.0" encoding="UTF-8" standalone="no"?>
<!-- Created with Inkscape (http://www.inkscape.org/) -->

<svg
   width="257.09937mm"
   height="156.2453mm"
   viewBox="0 0 257.09936 156.2453"
   version="1.1"
   id="svg12"
   xml:space="preserve"
   inkscape:version="1.2 (dc2aeda, 2022-05-15)"
   sodipodi:docname="burgee-lance2.svg"
   xmlns:inkscape="http://www.inkscape.org/namespaces/inkscape"
   xmlns:sodipodi="http://sodipodi.sourceforge.net/DTD/sodipodi-0.dtd"
   xmlns="http://www.w3.org/2000/svg"
   xmlns:svg="http://www.w3.org/2000/svg"><sodipodi:namedview
     id="namedview14"
     pagecolor="#ffffff"
     bordercolor="#999999"
     borderopacity="1"
     inkscape:showpageshadow="0"
     inkscape:pageopacity="0"
     inkscape:pagecheckerboard="true"
     inkscape:deskcolor="#d1d1d1"
     inkscape:document-units="mm"
     showgrid="false"
     inkscape:zoom="3.3638608"
     inkscape:cx="593.21717"
     inkscape:cy="439.67336"
     inkscape:window-width="1440"
     inkscape:window-height="872"
     inkscape:window-x="0"
     inkscape:window-y="28"
     inkscape:window-maximized="0"
     inkscape:current-layer="layer5"
     showborder="true"><inkscape:grid
       type="xygrid"
       id="grid16"
       originx="-0.32469714"
       originy="-0.84663454" /></sodipodi:namedview><defs
     id="defs9" /><g
     inkscape:groupmode="layer"
     id="layer4"
     inkscape:label="Layer 3"
     style="display:inline"
     transform="translate(-0.32471714,-0.84662958)"><path
       sodipodi:type="star"
       style="display:inline;fill:#faf3f3;fill-opacity:1;stroke-width:0.264999;stroke-dasharray:none"
       id="path5084"
       inkscape:flatsided="true"
       sodipodi:sides="3"
       sodipodi:cx="32.720337"
       sodipodi:cy="28.31568"
       sodipodi:r1="90.313703"
       sodipodi:r2="34.765362"
       sodipodi:arg1="0.001226686"
       sodipodi:arg2="1.0484243"
       inkscape:rounded="0"
       inkscape:randomized="0"
       d="M 123.03397,28.426466 -12.532426,106.47419 -12.340538,-49.953618 Z"
       inkscape:transform-center-x="-33.006118"
       transform="matrix(1.8987938,0,0,1.0040435,23.551966,50.539106)" /></g><g
     inkscape:groupmode="layer"
     id="layer5"
     inkscape:label="Layer 4"
     transform="translate(-0.32471714,-0.84662958)"><path
       style="fill:#1d3466;fill-opacity:1;stroke-width:0.315113;stroke-dasharray:none"
       d="M 0.32471714,79.549273 C 121.68359,39.323038 2.8687837,78.411885 123.90249,38.284892 c 0.0584,80.224998 0.0853,26.717032 0.0461,81.406808 C 2.8656807,80.57339 124.10271,118.83431 0.32471714,79.549273 Z"
       id="path8329"
       sodipodi:nodetypes="cccc" /><path
       style="display:none;fill:#1d3466;fill-opacity:1;stroke-width:0.315113;stroke-dasharray:none"
       d="m 277.96559,105.66262 c -121.24764,-39.670063 -1.34285,0.25141 -122.37655,-40.504824 0.16408,79.780064 0.24842,1.597122 -0.15733,80.424784 121.82337,-39.82061 0.0907,0.36619 122.53388,-39.91996 z"
       id="path8885"
       sodipodi:nodetypes="cccc" /><path
       style="display:inline;fill:#ed1b24;fill-opacity:1;stroke-width:0.315113;stroke-dasharray:none"
       d="m 257.42408,79.003602 c -133.37666,40.655278 -133.5295,40.661158 -133.5295,40.661158 0.13399,-0.39168 0.1389,-0.34858 0.0623,-81.605795 74.67627,22.639823 46.22252,14.221054 133.46716,40.722168 0,0 133.3767,-40.432812 4e-5,0.222469 z"
       id="path8887"
       sodipodi:nodetypes="zsccz" /></g><g
     inkscape:groupmode="layer"
     id="layer3"
     inkscape:label="Layer 2"
     transform="translate(-0.32471714,-0.84662958)"><path
       style="fill:#ed1b24;fill-opacity:1;stroke:none;stroke-width:0.264583px;stroke-linecap:butt;stroke-linejoin:miter;stroke-opacity:1"
       d="m 33.200266,27.501676 c 7.007774,26.585043 6.89654,26.473809 6.89654,26.473809 C 28.109938,44.849451 32.308002,47.949312 19.407191,37.290309 l 26.807511,0.222472 -21.023317,16.240234 z"
       id="path310"
       sodipodi:nodetypes="cccccc" /><path
       style="fill:#ed1b24;fill-opacity:1;stroke:none;stroke-width:0.264583px;stroke-linecap:butt;stroke-linejoin:miter;stroke-opacity:1"
       d="m 32.531552,106.97366 c 6.896533,26.47381 6.89654,26.47381 6.89654,26.47381 -19.482238,-15.59102 -1.308816,-1.3764 -20.689618,-16.68518 l 26.807514,-0.55616 -21.02332,17.01887 z"
       id="path310-4"
       sodipodi:nodetypes="cccccc" /></g></svg>
